<svg width="106" height="30" viewBox="0 0 106 30" fill="none" xmlns="http://www.w3.org/2000/svg">
<path d="M22.7614 27.8382C23.315 27.5029 23.4919 26.7823 23.1566 26.2287C22.8212 25.6751 22.1007 25.4982 21.5471 25.8336C19.5788 27.026 17.3147 27.6562 15 27.6562C8.02131 27.6562 2.34375 21.9787 2.34375 15C2.34375 8.02131 8.02131 2.34375 15 2.34375C21.9787 2.34375 27.6562 8.02131 27.6562 15C27.6562 17.4954 26.9142 19.9245 25.5102 22.0245C25.1504 22.5625 25.295 23.2903 25.833 23.65C26.3712 24.0097 27.0989 23.8651 27.4586 23.3271C29.1212 20.8403 30 17.9607 30 15C30 10.9934 28.4397 7.22654 25.6066 4.39336C22.7735 1.56029 19.0066 0 15 0C10.9934 0 7.22654 1.56029 4.39336 4.39336C1.56029 7.22654 0 10.9934 0 15C0 19.0066 1.56029 22.7735 4.39336 25.6066C7.22654 28.4397 10.9934 30 15 30C17.7429 30 20.4268 29.2525 22.7614 27.8382Z" fill="#3B71FE"/>
<path fill-rule="evenodd" clip-rule="evenodd" d="M17.0311 21.1526C17.336 21.1526 17.5844 21.2557 17.7876 21.4619C17.9983 21.6758 18.1037 21.9278 18.1037 22.218C18.1037 22.5159 17.9983 22.7718 17.7876 22.9856C17.5844 23.1918 17.336 23.295 17.0424 23.295C15.7365 23.295 14.6301 22.8291 13.7119 21.8973C12.7936 20.9654 12.3345 19.8427 12.3345 18.529L12.3345 8.20658C12.3345 7.91634 12.4361 7.6643 12.6393 7.45044C12.8501 7.24422 13.1022 7.14111 13.3957 7.14111C13.6818 7.14111 13.9301 7.24422 14.1409 7.45044C14.3441 7.6643 14.4457 7.91634 14.4457 8.20658V11.7581H16.1505C16.4441 11.7581 16.6924 11.8612 16.8957 12.0675C17.1064 12.2737 17.2118 12.5257 17.2118 12.8236C17.2118 13.1215 17.1064 13.3735 16.8957 13.5797C16.6924 13.7936 16.4441 13.9005 16.1505 13.9005H14.4457L14.4457 18.529C14.4457 19.2546 14.6979 19.8732 15.2022 20.385C15.7064 20.8967 16.3161 21.1526 17.0311 21.1526Z" fill="#3B71FE" stroke="#3B71FE"/>
<path d="M36.234 8.9H45.504V11.276H42.102V21.5H39.618V11.276H36.234V8.9ZM48.3221 12.5V14.048C48.7541 12.896 49.8341 12.32 51.0581 12.32V14.912C50.3561 14.822 49.7081 14.966 49.1501 15.344C48.5921 15.722 48.3221 16.334 48.3221 17.198V21.5H46.0001V12.5H48.3221ZM59.2822 13.562V12.5H61.6042V21.5H59.2822V20.438C58.5802 21.32 57.6082 21.752 56.3482 21.752C55.1422 21.752 54.1162 21.302 53.2522 20.384C52.4062 19.466 51.9742 18.332 51.9742 17C51.9742 15.668 52.4062 14.552 53.2522 13.634C54.1162 12.716 55.1422 12.248 56.3482 12.248C57.6082 12.248 58.5802 12.68 59.2822 13.562ZM54.9982 18.836C55.4662 19.304 56.0602 19.538 56.7802 19.538C57.5002 19.538 58.0942 19.304 58.5622 18.836C59.0482 18.35 59.2822 17.738 59.2822 17C59.2822 16.262 59.0482 15.65 58.5622 15.182C58.0942 14.696 57.5002 14.462 56.7802 14.462C56.0602 14.462 55.4662 14.696 54.9982 15.182C54.5302 15.65 54.2962 16.262 54.2962 17C54.2962 17.738 54.5302 18.35 54.9982 18.836ZM67.7957 18.8L69.9917 12.5H72.5477L69.1277 21.5H66.4817L63.0617 12.5H65.6177L67.7957 18.8ZM82.7754 17.954H75.9894C76.2954 19.088 77.1414 19.646 78.5274 19.646C79.4094 19.646 80.0934 19.34 80.5434 18.746L82.4154 19.826C81.5334 21.104 80.2194 21.752 78.4914 21.752C76.9974 21.752 75.8094 21.302 74.9094 20.402C74.0094 19.502 73.5594 18.368 73.5594 17C73.5594 15.65 74.0094 14.516 74.8914 13.616C75.7734 12.698 76.9254 12.248 78.3114 12.248C79.6254 12.248 80.7234 12.698 81.5694 13.616C82.4334 14.534 82.8654 15.65 82.8654 17C82.8654 17.306 82.8294 17.612 82.7754 17.954ZM75.9534 16.154H80.5434C80.2734 14.93 79.3734 14.336 78.3114 14.336C77.0694 14.336 76.2234 15.002 75.9534 16.154ZM87.1684 21.5H84.8464V8.36H87.1684V21.5ZM98.4016 17.954H91.6156C91.9216 19.088 92.7676 19.646 94.1536 19.646C95.0356 19.646 95.7196 19.34 96.1696 18.746L98.0416 19.826C97.1596 21.104 95.8456 21.752 94.1176 21.752C92.6236 21.752 91.4356 21.302 90.5356 20.402C89.6356 19.502 89.1856 18.368 89.1856 17C89.1856 15.65 89.6356 14.516 90.5176 13.616C91.3996 12.698 92.5516 12.248 93.9376 12.248C95.2516 12.248 96.3496 12.698 97.1956 13.616C98.0596 14.534 98.4916 15.65 98.4916 17C98.4916 17.306 98.4556 17.612 98.4016 17.954ZM91.5796 16.154H96.1696C95.8996 14.93 94.9996 14.336 93.9376 14.336C92.6956 14.336 91.8496 15.002 91.5796 16.154ZM102.795 12.5V14.048C103.227 12.896 104.307 12.32 105.531 12.32V14.912C104.829 14.822 104.181 14.966 103.623 15.344C103.065 15.722 102.795 16.334 102.795 17.198V21.5H100.473V12.5H102.795Z" fill="#3B71FE"/>
</svg>
